<?xml version="1.0" standalone="no"?>
<!DOCTYPE svg PUBLIC "-//W3C//DTD SVG 20010904//EN"
 "http://www.w3.org/TR/2001/REC-SVG-20010904/DTD/svg10.dtd">
<svg version="1.0" xmlns="http://www.w3.org/2000/svg"
 width="1680.000000pt" height="546.000000pt" viewBox="0 0 1680.000000 546.000000"
 preserveAspectRatio="xMidYMid meet">

<g transform="translate(0.000000,546.000000) scale(0.100000,-0.100000)"
fill="#000000" stroke="none">
<path d="M5020 5225 c0 -248 -113 -902 -210 -1210 -29 -92 -30 -106 -50 -450
-6 -93 -14 -244 -20 -335 -6 -91 -14 -239 -20 -330 -5 -91 -19 -320 -30 -510
-11 -190 -29 -493 -40 -675 -11 -181 -27 -445 -35 -585 -22 -376 -35 -587 -45
-753 -6 -81 -10 -163 -10 -182 l0 -35 245 0 245 0 0 1778 c0 1973 -9 3352 -22
3352 -4 0 -8 -29 -8 -65z"/>
<path d="M15685 3805 c-20 -19 -25 -34 -25 -77 0 -69 23 -106 84 -137 147 -73
433 -35 480 63 29 62 13 150 -31 167 -81 30 -133 -3 -133 -87 0 -32 -5 -56
-14 -63 -22 -18 -115 -25 -163 -12 l-43 12 0 55 c0 45 -4 59 -25 79 -34 35
-96 35 -130 0z"/>
<path d="M4605 3428 c-87 -225 -257 -536 -462 -845 l-134 -202 -64 -208 c-165
-533 -378 -1054 -571 -1389 -133 -234 -283 -449 -373 -539 -22 -22 -40 -50
-41 -62 l0 -23 643 0 643 0 27 112 c76 328 148 845 237 1708 39 382 140 1457
140 1493 0 46 -16 30 -45 -45z"/>
<path d="M9371 3393 c-22 -54 -81 -197 -131 -318 -199 -481 -192 -465 -225
-491 -28 -21 -42 -24 -117 -24 -78 0 -86 2 -109 26 l-24 26 0 362 c0 284 3
366 13 379 7 8 32 18 55 22 75 12 77 13 77 56 l0 39 -226 0 -225 0 3 -42 3
-43 49 -7 c78 -11 81 -17 84 -183 l3 -145 -230 0 -231 0 0 133 c0 168 5 177
88 195 l62 14 0 39 0 39 -226 0 -225 0 3 -42 3 -43 49 -7 c85 -12 81 7 84
-386 2 -191 0 -357 -3 -370 -10 -41 -41 -62 -90 -62 l-45 0 0 -45 0 -45 225 0
225 0 0 45 0 45 -47 0 c-91 1 -103 28 -103 236 l0 154 230 0 230 0 0 -161 c0
-201 -11 -228 -97 -229 l-43 0 0 -45 0 -45 400 0 400 0 0 45 0 45 -43 0 c-24
0 -51 6 -61 13 -16 12 -15 20 25 120 l42 107 182 0 182 0 42 -101 c23 -56 41
-109 39 -118 -2 -12 -17 -17 -56 -19 l-52 -3 0 -45 0 -44 435 0 435 0 0 45 0
45 -42 0 c-87 1 -98 28 -98 229 l0 161 230 0 230 0 0 -154 c0 -84 -5 -167 -10
-183 -13 -35 -46 -53 -95 -53 -35 0 -35 0 -35 -45 l0 -45 225 0 225 0 0 45 0
45 -47 0 c-54 1 -78 14 -93 54 -15 41 -13 694 3 725 12 25 33 35 100 46 35 6
37 8 37 45 l0 40 -226 0 -225 0 3 -42 c3 -42 4 -43 46 -49 78 -10 86 -28 90
-189 l4 -140 -231 0 -231 0 0 133 c0 175 2 179 113 202 24 5 27 10 27 45 l0
40 -225 0 -225 0 0 -40 c0 -43 -2 -41 83 -55 65 -10 67 -24 67 -404 0 -204 -4
-340 -10 -357 -17 -44 -38 -53 -123 -54 -74 0 -79 1 -111 33 -26 24 -55 80
-114 217 -44 102 -126 291 -182 420 -56 129 -104 241 -107 248 -3 6 -20 12
-38 12 -32 0 -34 -2 -74 -97z m113 -353 c26 -63 50 -121 53 -127 4 -10 -26
-13 -131 -13 -75 0 -136 3 -136 7 0 4 30 83 67 174 l67 167 17 -46 c9 -26 37
-99 63 -162z"/>
<path d="M11466 3469 c-246 -83 -382 -356 -321 -642 22 -105 57 -171 127 -241
76 -76 162 -119 271 -136 190 -31 396 55 497 208 36 54 38 87 8 113 -33 27
-45 24 -67 -19 -27 -53 -112 -129 -179 -160 -67 -31 -170 -41 -236 -22 -127
35 -220 167 -246 349 -24 173 56 377 178 449 42 24 56 27 137 27 109 -1 165
-24 226 -94 46 -52 68 -92 93 -168 16 -48 20 -53 47 -53 l29 0 0 73 c0 41 -3
129 -7 195 l-6 122 -27 0 c-21 0 -30 -7 -40 -30 -15 -35 -19 -36 -62 -11 -108
63 -300 81 -422 40z"/>
<path d="M12460 3467 c-165 -55 -282 -179 -325 -344 -19 -72 -19 -231 0 -302
54 -203 212 -342 425 -372 73 -11 99 -10 172 3 250 46 403 215 424 470 23 268
-125 489 -369 554 -82 22 -249 17 -327 -9z m303 -85 c140 -62 218 -237 204
-457 -12 -180 -79 -305 -193 -360 -61 -30 -190 -33 -258 -6 -132 54 -209 205
-209 411 0 279 138 450 351 435 34 -2 82 -13 105 -23z"/>
<path d="M5940 3426 l0 -43 53 -6 c36 -5 57 -13 70 -28 10 -12 16 -23 14 -25
-1 -2 -23 2 -47 8 -66 15 -187 4 -241 -21 -102 -48 -169 -149 -177 -267 -17
-265 157 -428 413 -386 33 6 62 8 64 6 2 -2 -1 -22 -8 -44 -13 -44 -34 -60
-80 -60 -50 0 -61 -9 -61 -51 l0 -39 226 0 225 0 -3 43 -3 42 -46 3 c-57 4
-79 25 -86 82 -6 41 -5 42 16 30 12 -6 66 -12 119 -13 117 -1 170 20 244 95
67 68 91 138 92 258 1 83 -2 102 -25 150 -31 66 -71 108 -135 146 -40 23 -62
29 -133 32 -47 2 -106 -1 -131 -7 -24 -5 -46 -9 -47 -7 -2 2 4 13 14 25 13 15
34 23 71 28 l52 6 0 43 0 44 -225 0 -225 0 0 -44z m468 -186 c59 -14 107 -48
134 -95 20 -34 23 -54 23 -140 0 -84 -3 -107 -22 -142 -47 -88 -110 -121 -210
-109 -90 11 -83 -10 -83 242 0 123 1 224 3 224 1 0 20 7 42 15 48 17 57 17
113 5z m-333 -20 c13 -10 15 -48 15 -232 0 -253 10 -233 -116 -233 -73 0 -84
3 -118 29 -57 43 -90 122 -89 213 1 122 35 185 118 225 31 14 55 18 107 15 37
-2 75 -10 83 -17z"/>
<path d="M6742 3428 l3 -43 49 -6 c89 -10 86 4 86 -414 l0 -364 -26 -20 c-18
-14 -41 -21 -70 -21 l-44 0 0 -45 0 -45 225 0 225 0 0 45 0 45 -45 0 c-35 0
-52 6 -70 25 -14 13 -25 30 -25 37 0 8 39 59 88 114 48 55 112 129 142 164 30
35 66 75 78 89 38 41 126 142 139 160 10 13 12 -35 13 -234 0 -142 -5 -266
-10 -287 -14 -47 -43 -68 -97 -68 l-43 0 0 -45 0 -45 225 0 225 0 0 45 0 45
-45 0 c-35 0 -52 6 -70 25 l-25 24 0 358 c0 401 -1 397 68 408 70 12 72 14 72
56 l0 39 -226 0 -225 0 3 -42 3 -43 50 -7 c49 -7 85 -33 85 -63 0 -10 -148
-191 -205 -251 -5 -6 -62 -70 -125 -143 l-115 -132 -3 272 c-3 304 -3 303 67
315 69 11 71 13 71 55 l0 39 -226 0 -225 0 3 -42z"/>
<path d="M13210 3431 c0 -44 -2 -42 83 -56 65 -10 67 -25 67 -397 0 -178 -4
-338 -10 -357 -13 -45 -36 -60 -92 -61 l-48 0 0 -46 0 -45 298 3 c288 3 298 4
344 26 107 53 152 130 152 257 0 89 -19 138 -71 186 -32 31 -100 69 -123 69
-8 0 5 11 29 23 25 13 58 40 75 61 30 37 31 41 31 141 0 100 -1 104 -30 140
-17 21 -53 49 -80 64 l-50 26 -287 3 -288 3 0 -40z m511 -77 c35 -31 51 -74
52 -134 1 -109 -53 -160 -179 -168 l-74 -5 0 168 0 167 90 -4 c70 -3 94 -8
111 -24z m-18 -410 c56 -19 103 -70 113 -120 10 -55 -2 -139 -27 -184 -39 -69
-125 -96 -209 -66 -54 19 -60 41 -60 224 l0 162 68 0 c38 0 89 -7 115 -16z"/>
<path d="M14080 3430 c0 -43 -2 -41 81 -55 65 -10 64 -3 67 -384 2 -190 0
-356 -3 -368 -10 -41 -44 -63 -97 -63 l-48 0 0 -46 0 -45 298 3 c291 3 298 3
346 27 108 54 150 125 150 251 0 100 -20 154 -78 212 -60 59 -129 81 -278 86
l-128 4 0 132 c0 174 5 183 113 201 35 6 37 8 37 45 l0 40 -230 0 -230 0 0
-40z m478 -482 c64 -15 97 -40 116 -88 41 -104 3 -240 -78 -279 -48 -24 -82
-26 -139 -9 -59 18 -67 45 -67 233 l0 155 61 0 c33 0 81 -5 107 -12z"/>
<path d="M14910 3426 l0 -43 52 -6 c88 -11 83 12 83 -406 0 -349 -1 -370 -19
-390 -14 -16 -31 -21 -68 -21 l-48 0 0 -45 0 -45 226 0 225 0 -3 43 -3 42 -47
5 c-61 6 -85 28 -93 82 -3 24 -5 188 -3 365 3 371 0 358 96 370 l52 6 0 43 0
44 -225 0 -225 0 0 -44z"/>
<path d="M15392 3428 l3 -43 54 -7 c54 -6 67 -16 83 -63 10 -32 9 -657 -2
-694 -13 -45 -36 -60 -92 -61 l-48 0 0 -45 0 -45 225 0 225 0 0 45 0 45 -41 0
c-50 0 -77 14 -90 47 -8 23 -1 34 78 126 112 129 137 158 194 221 25 28 75 85
110 126 l64 75 3 -60 c2 -33 2 -156 0 -273 l-3 -214 -28 -24 c-21 -18 -40 -24
-73 -24 l-44 0 0 -45 0 -45 225 0 225 0 0 45 0 45 -39 0 c-101 0 -101 -1 -101
417 0 390 0 387 68 398 70 12 72 14 72 56 l0 39 -225 0 -225 0 0 -39 c0 -42
11 -51 59 -51 36 0 81 -35 81 -63 -1 -19 -67 -101 -234 -287 -17 -19 -73 -83
-124 -143 l-92 -107 0 273 c0 306 1 311 68 322 70 12 72 14 72 56 l0 39 -226
0 -225 0 3 -42z"/>
<path d="M3455 1776 c-196 -198 -311 -298 -500 -440 -147 -110 -381 -266 -535
-356 -168 -98 -486 -257 -624 -312 -27 -10 -68 -27 -90 -38 -54 -24 -123 -49
-341 -124 -348 -120 -703 -207 -1085 -266 -119 -18 -120 -19 -120 -40 0 -20
10 -20 1170 -20 l1169 0 102 97 c378 362 856 1084 1028 1552 29 78 40 143 24
139 -5 -1 -93 -88 -198 -192z m-1358 -1393 c-2 -21 -4 -4 -4 37 0 41 2 58 4
38 2 -21 2 -55 0 -75z m200 45 c-3 -7 -5 -2 -5 12 0 14 2 19 5 13 2 -7 2 -19
0 -25z"/>
<path d="M11915 1955 c-170 -53 -293 -187 -340 -370 -18 -69 -20 -221 -4 -297
18 -88 74 -190 138 -251 100 -96 200 -132 356 -131 116 1 185 18 271 69 92 55
184 166 184 223 0 15 -48 62 -64 62 -3 0 -15 -19 -27 -42 -29 -57 -104 -128
-170 -160 -264 -129 -508 59 -509 392 0 153 47 278 136 359 59 54 105 71 192
71 86 0 158 -29 216 -88 47 -47 101 -143 112 -201 6 -27 11 -31 40 -31 l34 0
0 68 c0 37 -3 124 -7 195 l-6 127 -28 0 c-22 0 -32 -7 -44 -30 -9 -16 -17 -30
-19 -30 -2 0 -26 11 -53 25 -27 14 -73 32 -103 40 -67 18 -249 18 -305 0z"/>
<path d="M5590 1905 c0 -43 1 -45 29 -45 41 0 84 -47 187 -203 48 -73 139
-209 201 -304 104 -157 113 -174 102 -195 -32 -62 -70 -74 -124 -38 -39 26
-78 25 -110 -3 -52 -44 -37 -152 26 -184 34 -18 115 -16 156 4 62 29 62 28
332 558 85 165 161 308 170 318 19 23 75 47 107 47 22 0 24 4 24 45 l0 45
-180 0 -180 0 0 -44 0 -45 51 -3 c33 -2 55 -9 61 -18 7 -11 -22 -80 -108 -258
l-117 -242 -61 92 c-119 182 -230 353 -242 377 -19 36 -2 51 57 51 l49 0 0 45
0 45 -215 0 -215 0 0 -45z"/>
<path d="M6700 1905 l0 -45 48 0 c61 0 88 -23 97 -82 3 -24 5 -191 3 -373 -3
-367 -4 -370 -68 -381 -82 -13 -80 -11 -80 -54 l0 -40 230 0 230 0 0 39 c0 42
-11 51 -60 51 -16 0 -41 11 -57 24 l-28 24 -3 176 -3 176 235 0 236 0 0 -174
c0 -204 -3 -212 -85 -224 l-50 -7 -3 -43 -3 -42 230 0 231 0 0 39 c0 43 -10
51 -65 51 -18 0 -43 9 -56 19 l-24 19 -3 376 -3 376 25 25 c20 20 35 25 76 25
l50 0 0 45 0 45 -230 0 -230 0 0 -45 0 -45 45 0 c35 0 52 -6 70 -25 24 -23 25
-28 25 -170 l0 -145 -235 0 -235 0 0 124 c0 68 3 138 6 155 8 39 46 61 104 61
l40 0 0 45 0 45 -230 0 -230 0 0 -45z"/>
<path d="M7820 1905 l0 -45 44 0 c107 0 106 5 106 -422 0 -264 -3 -359 -13
-378 -12 -24 -26 -30 -114 -46 -19 -4 -23 -11 -23 -44 l0 -40 231 0 230 0 -3
43 -3 42 -49 6 c-68 7 -108 58 -73 93 6 7 37 41 67 76 92 107 361 414 377 430
12 13 14 -22 11 -266 -3 -316 -4 -317 -77 -330 -69 -11 -71 -13 -71 -55 l0
-39 230 0 230 0 0 39 c0 42 -11 51 -60 51 -16 0 -41 11 -57 24 l-28 24 -3 329
c-4 396 -1 428 38 448 16 8 47 15 70 15 l40 0 0 45 0 45 -230 0 -230 0 0 -45
0 -45 44 0 c50 0 96 -30 96 -61 0 -20 -110 -153 -347 -422 l-113 -127 0 282
c0 156 4 288 8 294 13 20 50 34 91 34 l41 0 0 45 0 45 -230 0 -230 0 0 -45z"/>
<path d="M8950 1905 l0 -45 49 0 c42 0 53 -4 70 -26 20 -26 21 -38 21 -394 0
-423 3 -409 -86 -419 l-49 -6 -3 -42 -3 -43 290 0 c268 0 294 2 345 21 61 22
116 72 149 133 32 59 31 203 0 262 -28 52 -77 95 -135 120 l-46 18 54 34 c74
46 97 92 97 192 0 88 -23 144 -76 184 -65 50 -109 56 -404 56 l-273 0 0 -45z
m506 -64 c45 -27 68 -93 61 -172 -9 -97 -58 -137 -183 -146 l-74 -6 0 172 0
171 83 0 c63 0 89 -4 113 -19z m32 -447 c83 -49 107 -176 54 -281 -33 -63 -74
-88 -148 -88 -69 0 -107 16 -123 52 -7 14 -11 90 -11 190 l0 166 92 -7 c73 -5
100 -11 136 -32z"/>
<path d="M9840 1905 l0 -45 48 0 c56 -1 79 -16 92 -61 11 -37 12 -682 2 -714
-16 -47 -29 -57 -83 -63 l-54 -7 -3 -42 -3 -43 414 0 414 0 7 118 c4 64 9 141
12 170 l6 52 -36 0 c-25 0 -36 -4 -36 -15 0 -28 -42 -126 -67 -156 -48 -56
-95 -72 -218 -73 -174 -1 -185 14 -185 252 l0 142 73 0 c44 -1 79 -6 89 -14
21 -15 48 -76 48 -106 0 -16 6 -20 35 -20 l35 0 0 185 0 185 -35 0 c-31 0 -35
-3 -35 -26 0 -35 -28 -80 -57 -93 -13 -6 -53 -11 -88 -11 l-65 0 0 170 0 170
124 0 c185 0 223 -24 270 -172 4 -12 16 -18 36 -18 24 0 30 4 30 20 0 29 -19
211 -25 238 l-5 22 -370 0 -370 0 0 -45z"/>
<path d="M10700 1906 l0 -46 49 0 c33 0 56 -6 72 -19 l24 -19 3 -369 c2 -283
-1 -374 -11 -393 -12 -24 -26 -30 -114 -46 -19 -4 -23 -11 -23 -44 l0 -40 235
0 235 0 0 40 c0 43 2 41 -82 55 -63 10 -68 27 -68 212 l0 163 125 0 c148 0
203 13 257 59 60 51 88 119 88 211 0 103 -14 147 -64 196 -70 70 -105 77 -438
82 l-288 4 0 -46z m531 -62 c18 -11 43 -39 57 -64 19 -37 23 -56 20 -111 -7
-126 -79 -189 -216 -189 l-72 0 0 196 0 197 89 -5 c63 -4 100 -11 122 -24z"/>
<path d="M12540 1905 l0 -45 48 0 c38 0 53 -5 70 -23 22 -23 22 -27 22 -394 0
-427 3 -412 -86 -422 l-49 -6 -3 -42 -3 -43 230 0 231 0 0 40 c0 33 -4 40 -22
44 -93 17 -102 21 -114 52 l-13 30 232 264 232 264 3 -268 c2 -201 -1 -274
-10 -294 -13 -26 -25 -31 -115 -48 -19 -4 -23 -11 -23 -44 l0 -40 231 0 230 0
-3 43 -3 42 -49 6 c-89 10 -86 -5 -86 424 l0 374 26 20 c18 14 41 21 70 21
l44 0 0 45 0 45 -230 0 -230 0 0 -45 0 -45 48 0 c51 -1 72 -12 91 -48 11 -21
9 -28 -24 -67 -20 -25 -41 -50 -48 -57 -7 -7 -52 -60 -102 -118 -49 -58 -94
-110 -100 -116 -5 -6 -48 -55 -95 -109 l-85 -97 -3 270 c-1 162 2 280 8 296
11 31 45 46 101 46 l39 0 0 45 0 45 -230 0 -230 0 0 -45z"/>
<path d="M13660 1943 c0 -5 -7 -62 -15 -128 -8 -66 -15 -126 -15 -132 0 -8 13
-13 34 -13 31 0 35 4 51 48 10 26 29 62 42 80 38 51 69 62 183 62 l100 0 0
-387 c0 -292 -3 -394 -13 -413 -12 -24 -26 -30 -114 -46 -19 -4 -23 -11 -23
-44 l0 -40 231 0 230 0 -3 43 -3 42 -46 5 c-57 7 -76 21 -89 69 -6 21 -10 187
-10 404 l0 367 100 0 c148 0 181 -19 225 -127 21 -51 27 -58 54 -61 30 -3 31
-2 30 35 0 21 -6 83 -12 138 l-12 100 -462 3 c-255 1 -463 -1 -463 -5z"/>
<path d="M14620 1905 l0 -45 49 0 c42 0 53 -4 70 -26 20 -26 21 -38 21 -394 0
-423 3 -409 -86 -419 l-49 -6 -3 -42 -3 -43 410 0 409 0 6 38 c3 20 8 97 12
170 l7 132 -30 0 c-27 0 -31 -5 -46 -53 -26 -83 -68 -141 -121 -167 -66 -31
-226 -39 -276 -13 -54 28 -60 49 -60 226 l0 157 71 0 c64 0 73 -3 99 -28 17
-17 30 -44 35 -70 6 -40 9 -42 41 -42 l34 0 0 185 0 185 -35 0 c-29 0 -35 -4
-35 -20 0 -29 -26 -76 -52 -94 -15 -11 -45 -16 -90 -16 l-68 0 0 170 0 170
126 0 c159 0 189 -13 234 -104 17 -32 30 -65 30 -73 0 -8 13 -13 36 -13 l36 0
-6 43 c-3 23 -8 67 -11 97 -3 30 -8 74 -11 98 l-5 42 -370 0 -369 0 0 -45z"/>
<path d="M15480 1948 c0 -2 -7 -59 -15 -128 -19 -162 -21 -150 19 -150 31 0
36 4 46 38 18 55 56 110 93 132 26 16 50 20 135 20 l102 0 0 -387 c0 -292 -3
-394 -13 -413 -12 -24 -26 -30 -114 -46 -19 -4 -23 -11 -23 -44 l0 -40 231 0
230 0 -3 43 -3 42 -48 5 c-30 4 -55 14 -70 28 -22 22 -22 24 -25 417 l-3 395
99 0 c148 0 189 -24 232 -138 15 -41 22 -47 49 -50 26 -3 31 0 31 18 0 29 -19
210 -25 238 l-5 22 -460 0 c-253 0 -460 -1 -460 -2z"/>
<path d="M12140 581 c0 -49 18 -64 76 -64 52 0 73 20 74 71 0 27 -3 32 -24 32
-16 0 -27 -7 -31 -20 -3 -11 -13 -20 -22 -20 -8 0 -17 9 -20 20 -3 13 -14 20
-29 20 -21 0 -24 -5 -24 -39z"/>
<path d="M13370 587 c0 -51 20 -70 73 -70 59 0 77 15 77 64 0 34 -3 39 -24 39
-15 0 -26 -7 -29 -20 -3 -11 -12 -20 -20 -20 -9 0 -19 9 -22 20 -4 13 -15 20
-31 20 -21 0 -24 -5 -24 -33z"/>
<path d="M13870 525 c0 -19 -5 -25 -22 -25 -88 0 -145 -126 -104 -225 16 -37
68 -75 104 -75 17 0 22 -6 22 -25 0 -21 5 -25 30 -25 25 0 30 4 30 24 0 19 6
24 38 30 60 9 95 53 100 124 3 38 -1 70 -11 95 -17 39 -68 77 -104 77 -18 0
-23 6 -23 25 0 21 -5 25 -30 25 -25 0 -30 -4 -30 -25z m0 -180 c0 -41 -4 -75
-9 -75 -16 0 -59 43 -65 65 -8 28 28 85 54 85 18 0 20 -6 20 -75z m119 49 c12
-15 21 -35 21 -46 0 -21 -51 -78 -69 -78 -7 0 -11 28 -11 75 0 67 2 75 19 75
11 0 29 -12 40 -26z"/>
<path d="M9381 522 c-53 -27 -71 -71 -71 -177 0 -73 4 -96 20 -123 52 -85 198
-77 236 13 24 58 19 75 -20 75 -28 0 -35 -4 -38 -22 -4 -30 -47 -53 -81 -44
-74 18 -76 193 -3 212 40 10 60 1 76 -33 12 -27 21 -33 48 -33 37 0 41 18 18
75 -28 67 -114 94 -185 57z"/>
<path d="M10901 523 c-53 -28 -76 -82 -76 -178 1 -127 42 -179 141 -179 100 0
139 52 139 184 -1 94 -17 138 -60 166 -38 25 -104 28 -144 7z m100 -76 c27
-21 39 -54 39 -107 0 -41 -5 -56 -25 -75 -57 -58 -125 -11 -125 85 0 63 32
109 75 109 11 0 27 -5 36 -12z"/>
<path d="M11209 517 c-50 -33 -69 -79 -69 -166 0 -87 24 -149 67 -172 33 -18
112 -18 145 -1 32 18 58 62 58 101 0 27 -3 31 -29 31 -22 0 -31 -6 -41 -30
-12 -30 -42 -45 -76 -38 -58 11 -81 143 -34 193 34 36 78 31 105 -12 14 -23
28 -32 48 -33 24 0 27 4 27 30 0 98 -116 154 -201 97z"/>
<path d="M11508 518 c-49 -28 -68 -77 -68 -174 0 -86 23 -141 68 -165 33 -18
112 -18 145 0 30 16 57 66 57 105 0 22 -4 26 -29 26 -22 0 -31 -6 -41 -30 -21
-51 -94 -54 -121 -4 -8 15 -14 51 -13 80 0 42 5 59 24 79 39 42 93 29 113 -27
4 -12 17 -18 37 -18 27 0 30 3 30 30 0 45 -18 75 -60 99 -48 27 -95 26 -142
-1z"/>
<path d="M12470 522 c-55 -28 -75 -72 -75 -172 0 -67 4 -92 20 -120 63 -108
245 -79 245 39 0 39 -2 41 -30 41 -20 0 -30 -5 -30 -15 0 -24 -37 -55 -65 -55
-14 0 -37 11 -50 25 -47 46 -26 177 29 191 40 10 60 1 76 -33 12 -25 21 -33
43 -33 25 0 27 3 27 38 0 90 -100 140 -190 94z"/>
<path d="M13049 517 c-47 -31 -63 -69 -67 -157 -4 -92 22 -154 78 -183 66 -34
154 -7 184 58 23 48 22 189 -2 235 -36 67 -129 90 -193 47z m112 -70 c41 -32
52 -116 22 -168 -35 -59 -113 -43 -132 26 -26 96 47 191 110 142z"/>
<path d="M5620 350 l0 -180 30 0 30 0 0 145 0 145 70 0 70 0 0 -145 0 -145 30
0 30 0 0 180 0 180 -130 0 -130 0 0 -180z"/>
<path d="M5940 350 l0 -180 30 0 30 0 0 60 0 60 43 0 c57 0 110 16 131 39 23
25 31 90 17 133 -17 53 -53 68 -160 68 l-91 0 0 -180z m168 94 c47 -33 15 -74
-59 -74 l-49 0 0 45 0 45 43 0 c23 0 53 -7 65 -16z"/>
<path d="M6230 350 l0 -180 34 0 c31 0 37 6 102 107 l69 107 3 -107 3 -107 29
0 30 0 0 180 0 180 -32 0 c-31 0 -37 -7 -98 -105 l-65 -106 -3 106 -3 105 -34
0 -35 0 0 -180z"/>
<path d="M6680 350 l0 -180 30 0 30 0 0 145 0 145 70 0 70 0 0 -145 0 -145 30
0 30 0 0 180 0 180 -130 0 -130 0 0 -180z"/>
<path d="M7000 350 l0 -180 30 0 30 0 0 60 0 60 43 0 c110 0 150 32 151 121 1
56 -1 63 -32 90 -31 28 -37 29 -127 29 l-95 0 0 -180z m168 94 c47 -33 15 -74
-59 -74 l-49 0 0 45 0 45 43 0 c23 0 53 -7 65 -16z"/>
<path d="M7292 368 c-34 -90 -62 -171 -62 -180 0 -13 8 -18 31 -18 26 0 33 5
46 40 l16 40 64 0 c48 0 63 -3 63 -15 0 -8 5 -26 12 -40 9 -19 19 -25 45 -25
20 0 33 5 33 13 0 6 -28 86 -63 177 -61 160 -64 165 -93 168 l-31 3 -61 -163z
m117 -30 c1 -5 -12 -8 -29 -8 -27 0 -29 2 -21 23 5 12 12 31 16 42 6 17 9 15
20 -15 8 -19 14 -38 14 -42z"/>
<path d="M7560 350 l0 -180 85 0 c132 0 162 24 151 121 -3 30 -5 84 -5 121 0
59 -3 71 -25 93 -23 23 -32 25 -116 25 l-90 0 0 -180z m156 96 c17 -14 18 -16
3 -31 -9 -9 -35 -19 -58 -22 l-41 -6 0 37 c0 35 1 36 38 36 21 0 47 -6 58 -14z
m9 -146 c17 -19 17 -22 3 -36 -9 -9 -37 -19 -62 -21 l-46 -6 0 42 0 41 43 0
c31 0 49 -6 62 -20z"/>
<path d="M7850 350 l0 -180 34 0 c19 0 36 6 39 13 3 8 33 56 66 107 l61 94 0
-107 0 -107 30 0 30 0 0 180 0 180 -29 0 c-26 0 -36 -11 -100 -112 l-71 -112
0 112 0 112 -30 0 -30 0 0 -180z"/>
<path d="M8140 495 l0 -35 55 0 55 0 0 -145 0 -145 30 0 30 0 0 145 0 145 50
0 50 0 0 35 0 35 -135 0 -135 0 0 -35z"/>
<path d="M8440 350 l0 -180 115 0 115 0 0 35 0 35 -85 0 -85 0 0 40 0 40 75 0
75 0 0 35 0 35 -75 0 -75 0 0 35 0 35 85 0 85 0 0 35 0 35 -115 0 -115 0 0
-180z"/>
<path d="M8745 418 c-7 -125 -17 -164 -46 -171 -14 -4 -19 -14 -19 -42 0 -36
1 -36 37 -33 59 5 75 37 87 173 l10 115 48 0 48 0 0 -145 0 -145 30 0 30 0 0
180 0 180 -109 0 -109 0 -7 -112z"/>
<path d="M9030 350 l0 -180 94 0 c90 0 95 1 125 29 26 24 31 37 31 74 0 93
-36 127 -135 127 l-55 0 0 65 0 65 -30 0 -30 0 0 -180z m170 -45 c28 -34 -8
-65 -77 -65 -32 0 -33 2 -33 40 l0 40 49 0 c30 0 53 -5 61 -15z"/>
<path d="M9580 495 l0 -35 55 0 55 0 0 -145 0 -145 30 0 30 0 0 145 0 145 55
0 55 0 0 35 0 35 -140 0 -140 0 0 -35z"/>
<path d="M9880 350 l0 -180 91 0 c77 0 96 3 121 21 29 21 29 23 24 93 -6 93
-6 84 0 138 5 43 3 50 -24 78 -29 29 -34 30 -121 30 l-91 0 0 -180z m151 100
c41 -23 6 -60 -57 -60 -21 0 -24 5 -24 35 0 32 2 35 31 35 17 0 39 -5 50 -10z
m13 -143 c13 -9 16 -20 12 -34 -7 -22 -33 -33 -78 -33 -26 0 -28 3 -28 40 0
40 0 40 38 40 21 0 46 -6 56 -13z"/>
<path d="M10170 350 l0 -180 115 0 115 0 0 35 0 35 -85 0 -85 0 0 40 0 40 70
0 70 0 0 35 0 35 -70 0 -70 0 0 35 0 35 85 0 85 0 0 35 0 35 -115 0 -115 0 0
-180z"/>
<path d="M10550 350 l0 -180 30 0 c30 0 30 0 30 59 l0 58 64 6 c36 3 74 12 85
19 62 38 52 183 -15 208 -14 6 -63 10 -110 10 l-84 0 0 -180z m166 87 l27 -24
-21 -21 c-16 -16 -34 -22 -67 -22 l-45 0 0 45 0 45 39 0 c27 0 49 -7 67 -23z"/>
<path d="M11750 350 l0 -180 33 0 c30 0 37 7 105 112 l72 112 0 -112 0 -112
30 0 30 0 0 180 0 180 -33 0 c-31 0 -37 -6 -102 -111 l-70 -111 -3 111 -3 111
-29 0 -30 0 0 -180z"/>
<path d="M12080 350 l0 -180 33 0 c30 1 37 8 100 107 l67 106 0 -106 0 -107
30 0 30 0 0 180 0 180 -29 0 c-27 0 -36 -11 -98 -109 l-68 -110 -3 110 -3 109
-29 0 -30 0 0 -180z"/>
<path d="M12710 350 l0 -180 30 0 30 0 0 70 c0 49 4 70 13 70 6 0 37 -31 67
-70 50 -63 58 -69 93 -70 53 0 49 23 -22 110 l-60 73 55 72 c66 87 68 105 17
105 -35 0 -42 -6 -93 -70 -29 -39 -58 -70 -62 -70 -4 0 -8 32 -8 70 l0 70 -30
0 -30 0 0 -180z"/>
<path d="M13310 350 l0 -180 33 0 c30 0 37 7 97 101 l65 102 3 -102 3 -101 34
0 35 0 0 180 0 180 -34 0 c-30 0 -37 -6 -71 -61 -20 -33 -53 -84 -71 -112
l-34 -52 0 113 0 112 -30 0 -30 0 0 -180z"/>
<path d="M14110 350 l0 -180 110 0 110 0 0 35 0 35 -80 0 -80 0 0 40 0 40 70
0 70 0 0 35 0 35 -70 0 -70 0 0 35 0 35 80 0 80 0 0 35 0 35 -110 0 -110 0 0
-180z"/>
<path d="M14417 431 c-5 -106 -33 -191 -61 -191 -13 0 -16 -14 -16 -75 l0 -75
30 0 c28 0 30 2 30 40 l0 40 110 0 110 0 0 -40 c0 -38 2 -40 30 -40 l30 0 0
75 c0 68 -2 75 -20 75 -19 0 -20 7 -20 145 l0 145 -109 0 -108 0 -6 -99z m163
-81 l0 -110 -61 0 c-59 0 -61 1 -55 23 4 12 10 61 13 110 l6 87 48 0 49 0 0
-110z"/>
<path d="M14710 350 l0 -180 115 0 115 0 0 35 0 35 -80 0 -80 0 0 40 0 40 70
0 70 0 0 35 0 35 -70 0 -70 0 0 35 0 35 80 0 80 0 0 35 0 35 -115 0 -115 0 0
-180z"/>
<path d="M14970 350 l0 -180 35 0 35 0 0 59 0 58 67 6 c84 8 113 32 120 101
12 101 -30 136 -166 136 l-91 0 0 -180z m168 94 c48 -33 17 -74 -57 -74 l-41
0 0 45 0 45 38 0 c21 0 48 -7 60 -16z"/>
<path d="M15263 366 c-35 -90 -63 -171 -63 -180 0 -11 9 -16 33 -16 31 0 35 4
46 40 l12 40 63 0 63 0 12 -40 c11 -37 15 -40 46 -40 27 0 35 4 35 18 0 9 -29
89 -63 177 -61 153 -65 160 -93 163 -29 3 -29 2 -91 -162z m117 -28 c0 -5 -11
-8 -25 -8 -29 0 -29 0 -13 52 l11 39 14 -38 c7 -21 13 -41 13 -45z"/>
<path d="M15530 350 l0 -180 120 0 120 0 0 -40 c0 -38 2 -40 30 -40 l30 0 0
75 c0 60 -3 75 -15 75 -13 0 -15 23 -15 145 l0 145 -30 0 -30 0 0 -145 0 -145
-70 0 -70 0 0 145 0 145 -35 0 -35 0 0 -180z"/>
<path d="M15870 350 l0 -180 33 0 c30 0 37 7 100 107 l67 107 0 -107 0 -107
35 0 35 0 0 180 0 180 -33 0 c-32 0 -37 -6 -103 -109 l-69 -109 -3 109 -3 109
-29 0 -30 0 0 -180z"/>
<path d="M16200 350 l0 -180 30 0 c28 0 37 10 100 107 l70 106 0 -106 0 -107
30 0 30 0 0 180 0 180 -29 0 c-26 0 -36 -11 -98 -107 l-68 -106 -3 106 -3 107
-29 0 -30 0 0 -180z"/>
</g>
</svg>
